<svg xmlns="http://www.w3.org/2000/svg" xmlns:xlink="http://www.w3.org/1999/xlink" viewBox="0 0 1920 1080"><defs><style>.cls-1{fill:url(#Dégradé_sans_nom_6);}.cls-2{fill:#fff;}</style><linearGradient id="Dégradé_sans_nom_6" x1="960" x2="960" y2="1080" gradientUnits="userSpaceOnUse"><stop offset="0" stop-color="#456f8f"/><stop offset="1" stop-color="#ec6528"/></linearGradient></defs><title>fond</title><g id="fond"><rect class="cls-1" width="1920" height="1080"/></g><g id="ciel"><g id="étoile"><circle class="cls-2" cx="866.69" cy="191.46" r="1.16"/><circle class="cls-2" cx="1027.73" cy="95.71" r="1.16"/><circle class="cls-2" cx="1237.73" cy="75.71" r="1.16"/><circle class="cls-2" cx="807.73" cy="59.71" r="1.16"/><circle class="cls-2" cx="717.73" cy="139.71" r="1.16"/><circle class="cls-2" cx="657.73" cy="129.71" r="1.16"/><circle class="cls-2" cx="587.73" cy="49.71" r="1.16"/><circle class="cls-2" cx="427.73" cy="109.71" r="1.16"/><circle class="cls-2" cx="347.73" cy="39.71" r="1.16"/><circle class="cls-2" cx="237.73" cy="98.71" r="1.16"/><circle class="cls-2" cx="167.73" cy="68.71" r="1.16"/><circle class="cls-2" cx="127.73" cy="199.71" r="1.16"/><circle class="cls-2" cx="67.73" cy="139.71" r="1.16"/><circle class="cls-2" cx="47.73" cy="39.71" r="1.16"/><circle class="cls-2" cx="827.73" cy="19.71" r="1.16"/><circle class="cls-2" cx="1097.73" cy="49.71" r="1.16"/><circle class="cls-2" cx="1407.73" cy="49.71" r="1.16"/><circle class="cls-2" cx="1367.73" cy="119.71" r="1.16"/><circle class="cls-2" cx="1517.73" cy="29.71" r="1.16"/><circle class="cls-2" cx="1547.73" cy="149.71" r="1.16"/><circle class="cls-2" cx="1057.73" cy="169.71" r="1.16"/><circle class="cls-2" cx="1298.73" cy="369.71" r="1.16"/><circle class="cls-2" cx="1718.73" cy="209.71" r="1.16"/><circle class="cls-2" cx="1798.73" cy="88.71" r="1.16"/><circle class="cls-2" cx="1727.73" cy="68.71" r="1.16"/><circle class="cls-2" cx="1868.73" cy="39.71" r="1.16"/></g></g></svg>