<?xml version="1.0" encoding="utf-8"?>
<!-- Generator: Adobe Illustrator 23.0.2, SVG Export Plug-In . SVG Version: 6.00 Build 0)  -->
<svg version="1.1" id="Calque_1" xmlns="http://www.w3.org/2000/svg" xmlns:xlink="http://www.w3.org/1999/xlink" x="0px" y="0px"
	 viewBox="0 0 1920 1080" style="enable-background:new 0 0 1920 1080;" xml:space="preserve">
<style type="text/css">
	.st0{fill:url(#SVGID_1_);}
	.st1{fill:#111110;}
	.st2{fill:#1E2C44;}
	.st3{fill:#141F35;}
	.st4{fill:#111A2D;}
	.st5{fill:#1D2E54;}
	.st6{fill:#294466;}
	.st7{opacity:0.4;fill:#192846;enable-background:new    ;}
</style>
<title>avantPlan</title>
<g id="avant_plan">
	
		<linearGradient id="SVGID_1_" gradientUnits="userSpaceOnUse" x1="1074.7896" y1="210.3719" x2="1074.7896" y2="-4.9402" gradientTransform="matrix(1 0 0 -1 0 1077.8898)">
		<stop  offset="0" style="stop-color:#2A414F"/>
		<stop  offset="1" style="stop-color:#182222"/>
	</linearGradient>
	<path class="st0" d="M0,868.7c0,0,1612.5-6.9,1996.7,12.6s-76.7,199.5-76.7,199.5l-1920,2V868.7z"/>
	<g id="personnage">
		<path class="st1" d="M233.6,927.5c-1,1.4-1.6,3.2-1.6,4.9c0.1,2-0.6,3.2,3.4,3.6s9.3,0.1,9.7,0.1s4-1,1.7-4.2
			c-1.3-1.2-3-2.3-4.5-4.3s-6.7-2.4-6.7-2.4L233.6,927.5z"/>
		<path class="st1" d="M197.4,928.3c-1.3,1.4-2.9,2.4-4.6,3.1c-1.8,0.9-1.8,4.6,1,4.6h11.3c1.3-0.3,2.2-1.6,2.1-2.9
			c-0.1-2.5-0.1-3.4-0.5-3.7s-6.6-1.5-6.6-1.5L197.4,928.3z"/>
		<path class="st2" d="M201.2,876.5c-5.6,1.3-9.8,1.7-12.6,8.8c-0.8,2.3-0.6,4.8,0.4,7c0.7,1-0.1,3.5,0.2,4.2c0.5,1.3,1,2.6,1.4,3.9
			c0,0.3,1.2,5.6,1.2,6s1.6,4.4,1.8,6.6c0.2,2.4,0.6,4.8,1.1,7.1c0.6,1.7,1.2,3.4,1.6,5.1c0,0.7,0.2,4.2,3.1,4.3
			c1.7-0.1,3.4,0.1,5.1,0.4c4.4-1.1,3.4-2.3,2.5-5.2s-0.3-4.9-1-6.3s-1.8-1.6-1.8-6s-0.7-10.9-1.2-12.1c-0.7-2.1-1.3-4.2-1.8-6.3
			c-0.1-0.5-1-1.2,5.1-0.9s21.6-0.1,22.6-0.2s6.3-1.5,4.7,2.7c-0.5,4.3-0.6,8.7-0.4,13c0.1,1.3,0.2,6.7-0.4,8.4s-0.3,4.5-0.4,5
			s-1.1,2.3-0.4,4.4s1,3.2,4.1,2.7c2-0.5,1.7-1,5.7-1.3c3.4-0.4,0.6-6.6,0.5-7.3c-0.3-1.2,0-2.8,1.8-5.1c2-4,1-9.8,0.9-10.7
			c0-2.2,1-4.6,0.5-7.9c-0.2-2.5,1.1-5.9,0.8-7.2c-0.4-1.6-0.3-5.8-7.3-9.3S201.2,876.5,201.2,876.5z"/>
		<path class="st3" d="M224.9,824l-13.2-0.4l-1.5,4.5c-0.2,0-0.4,0.1-0.6,0.3c-0.2,0.2-1,0.2-0.2,2.7s0.7,2.5,0.8,2.6s0.3,0.8,1,0.7
			c0.2,1.1,0.4,2.2,0.8,3.2c0.4,1,0.7,4.6,3.5,6.5c0.9,0.7,2,1.1,3.1,1.1c1.7,0,3.2-0.9,3.9-2.4c1.4-2,1.9-4.8,2.4-5.9
			c0.2-0.6,0.7-2.3,0.8-2.5s0.7,0,0.9-0.8c0.4-1,0.7-2,1-3.1c0.1-0.4,0.4-1.7-0.7-1.9S224.9,824,224.9,824z"/>
		<path class="st3" d="M218.4,816.9c4.7,0,7,2.2,7.6,3.9c0.9,2.3,1.2,4.8,1,7.2c0,0.7-0.7,4.8-1.9,4.5s0.9-6.5-1.4-7
			c-2.6-0.7-1.4,3.1-4.9,3.2c-3.8-0.1-3.1-4-5.5-4.1c-2.8,0-0.6,5.7-2.1,5.9c-1.1,0.1-1.5-2.5-1.6-5c0-2.2,0.8-4.3,2.2-5.9
			C214,817.6,215,817,218.4,816.9z"/>
		<path class="st4" d="M211.7,836c-4.3,0.5-10.6,3.9-13.5,7c-1.7,1.4-1.7,5-2.3,6.3c-0.7,2.5-1,5.1-0.7,7.7c0.4,1.2-1.1,2.2-1.1,5.5
			c0,2.8-0.3,5.5-0.8,8.2c-0.3,1.5-0.8,5.8,1,7.7c1.6,1.9,0.2,1.8,3.2,2.9c2.5,0.9,5.1,1.5,7.7,1.8c1.8,0.1,24.9,2.1,26.7,1.9
			c1.1-0.3,1.6-0.3,2.3-0.5c1.1-0.3,3.3-3.2,3.7-3.5s1.4-0.7,2-1.3c0.3-0.5,0.3-2.7,0.3-4s0.8-3.8,0.2-5.5s0.9-3.9,0.3-5.5
			c-0.7-1.8-0.5-3.1-0.4-5.7c-0.1-4.1-0.7-8.1-1.7-12c-1.2-3.7-7.7-8-13.2-10.2C219.5,835.1,211.7,836,211.7,836z"/>
		<path class="st4" d="M212.3,838.9c0,0.6,0.3,5.1,0.4,5.4c0,1,0.5,2,1.3,2.6c1.1,1,2.1,2.1,2.8,3.4c0.1,0.2,1.4,2.2,2.2,0.2
			s1.6-3.3,3.2-4s1.9-4.1,2.1-4.9s0.8-3.3,0.8-3.8s0.1-2.1,0.1-2.2s-6.7,0.2-6.7,0.2L212.3,838.9"/>
		<polygon class="st5" points="125.6,928.3 131,928.3 131,895.8 278.9,895.8 278.9,928.3 284.3,928.3 284.3,891.7 125.6,891.7 		"/>
		<polygon class="st6" points="131,928.3 132.8,927.3 132.5,895.8 131,895.8 		"/>
		<polygon class="st6" points="278.8,928.3 277,927.3 277.3,895.8 278.8,895.8 		"/>
		<path class="st7" d="M284.3,927.4h-5.5v10h-33.5c0.1-0.2-0.1-0.4-1.2-0.6c-1.7-0.2-2-0.3-1.7-0.4c0.1,0,2.6-0.5,0-0.6
			c1.4-0.2,3.2-0.2,4.4-0.3c2.2-0.2-1.3-0.3-1.7-0.3s-5.6,0-9.7,0s-3.4,0.1-3.4,0.3s0.5,0.2,1.1,0.3c-0.3,0-0.6,0.1-0.9,0.2
			c-0.8,0.2,0.3,0.3,0.4,0.3s-0.2,0.3,0.4,0.4s0.5,0.6,0.4,0.7h-29.2c0.1-0.1,0.1-0.2,0.1-0.3c0-0.3,1.1-0.4,1.8-0.5
			s0.1-0.3,0.9-0.5c0.7-0.2,1.5-0.3-0.4-0.4h0.1c0.3,0,0.4-0.1,0.5-0.3s-2.1-0.2-2.1-0.2h-11.3c-2.8,0-2.8,0.3-1,0.4
			s3.9,0.2,4.5,0.2c-0.9,0.1-1,0.2-1,0.3s-1.4,0.4-1.6,0.4c-0.4,0.1-0.8,0.3-1.1,0.6c-0.3,0.2-0.7,0.3-1.1,0.4h-61.3v-10h-5.4v11.3
			h63.5c-0.1,0-0.2,0.1-0.3,0.1c-0.2,0-1.5,0.2-0.4,0.6c1.9,0.3,3.8,0.5,5.7,0.5l0,0c-1.8,0.2-1.3,0.5-1,0.6
			c0.5,0.1,0.9,0.5,0.8,0.7s1.4,0.3,1,0.4s0,0.5,0.7,0.6c0.7,0.3,1.5,0.5,2.3,0.5c2.8,0.2,9,0.5,13.2,0.5c-0.2,0.1-0.2,0.1-0.3,0.1
			c-0.3,0-0.7,0-1,0c-0.1,0,0,0-0.8,0.2s-0.1,0.2,0.2,0.2h0.2c-0.1,0.1-0.2,0.1-0.2,0.2c0.2,0.2,1,0.3,2.2,0.5
			c2.2,0.2,3.2,0.2,6.6,0.2c2.5,0.1,5.1,0,7.6-0.3c0.4-0.1,1.1-0.2,1-0.6c0,0,0,0-0.1,0l0,0c1.1,0,0.8-0.1,0.7-0.2
			c-0.3-0.1-0.7-0.2-1-0.2c-0.3,0-0.6-0.1-0.9-0.1c-0.1,0-0.3-0.1-0.4-0.1l-0.1-0.1l0,0c5.5-0.2,12-0.5,13.2-0.8
			c1-0.2,1.8-0.8,1.7-1s-0.3-0.3,0.4-0.5s-0.8-0.3-0.3-0.4s-0.3-0.3-0.2-0.5s0-0.3-0.3-0.3h-0.8c7-0.3,6.9-0.6,7.3-0.8
			c0.2-0.1-0.1-0.2-0.4-0.3h38.5L284.3,927.4z M203.3,938.7L203.3,938.7z M229.1,938.7h-5.7h10.2
			C232.4,938.8,229.7,938.7,229.1,938.7L229.1,938.7z"/>
	</g>
</g>
</svg>
