<svg id="avant_plan" data-name="avant plan" xmlns="http://www.w3.org/2000/svg" xmlns:xlink="http://www.w3.org/1999/xlink" viewBox="0 0 1920 1080"><defs><style>.cls-1{fill:url(#Dégradé_sans_nom_2);}.cls-2{fill:#111110;}.cls-3{fill:#1e2c44;}.cls-4{fill:#141f35;}.cls-5{fill:#111a2d;}.cls-6{fill:#1d2e54;}.cls-7{fill:#294466;}.cls-8{fill:#192846;opacity:0.4;}</style><linearGradient id="Dégradé_sans_nom_2" x1="1074.79" y1="867.52" x2="1074.79" y2="1082.81" gradientUnits="userSpaceOnUse"><stop offset="0" stop-color="#2a414f"/><stop offset="1" stop-color="#0f0f0f"/></linearGradient></defs><title>avantPlan</title><path class="cls-1" d="M0,868.7s1612.49-6.9,1996.67,12.64S1920,1080.83,1920,1080.83l-1920,2Z"/><g id="personnage"><path class="cls-2" d="M233.6,927.52a9.18,9.18,0,0,0-1.63,4.92c.05,2-.65,3.22,3.43,3.56s9.3.12,9.72.14,4-1,1.74-4.21c-1.26-1.2-3-2.28-4.5-4.27s-6.66-2.39-6.66-2.39Z"/><path class="cls-2" d="M197.43,928.31a12.46,12.46,0,0,1-4.62,3.11c-1.76.89-1.81,4.58,1,4.58h11.3a2.74,2.74,0,0,0,2.08-2.93c-.11-2.48-.15-3.41-.48-3.74s-6.65-1.47-6.65-1.47Z"/><path class="cls-3" d="M201.23,876.51c-5.63,1.28-9.8,1.68-12.61,8.78a9.6,9.6,0,0,0,.38,7c.66,1-.05,3.47.21,4.16a40.79,40.79,0,0,1,1.38,3.94c0,.3,1.22,5.59,1.22,6s1.64,4.37,1.77,6.64a46.69,46.69,0,0,0,1.13,7.13,45.77,45.77,0,0,1,1.6,5.1c0,.69.21,4.19,3.15,4.34a21.55,21.55,0,0,1,5.13.42c4.36-1.08,3.35-2.35,2.47-5.22s-.3-4.9-1-6.31-1.77-1.61-1.77-5.95-.69-10.91-1.18-12.13a60.29,60.29,0,0,1-1.81-6.28c-.07-.52-1-1.18,5.13-.92s21.65-.13,22.64-.23,6.34-1.48,4.67,2.67a87.84,87.84,0,0,0-.43,13c.07,1.35.2,6.74-.39,8.41s-.3,4.54-.37,5-1.15,2.33-.39,4.44,1,3.18,4.07,2.66c2-.51,1.71-1,5.66-1.28,3.45-.41.59-6.61.52-7.27-.28-1.22,0-2.82,1.75-5.09,2-4,1-9.85.85-10.65,0-2.25,1-4.6.52-7.93-.25-2.48,1.1-5.89.76-7.25-.39-1.58-.33-5.82-7.33-9.27S201.23,876.51,201.23,876.51Z"/><path class="cls-4" d="M224.92,824l-13.22-.37-1.54,4.49a1.4,1.4,0,0,0-.61.27c-.24.21-1,.19-.19,2.74s.73,2.49.78,2.6.3.82,1,.67a17.69,17.69,0,0,0,.8,3.25c.4,1,.73,4.59,3.53,6.55a4.76,4.76,0,0,0,3.15,1.07,4.43,4.43,0,0,0,3.93-2.38c1.35-2.05,1.88-4.82,2.4-5.91.23-.61.72-2.32.84-2.53s.68,0,.94-.81a20,20,0,0,0,1-3.07c.12-.43.44-1.67-.7-1.94S224.92,824,224.92,824Z"/><path class="cls-4" d="M218.4,816.89c4.73,0,7,2.16,7.62,3.92a16.73,16.73,0,0,1,1,7.25c0,.65-.73,4.82-1.88,4.47s.9-6.47-1.45-7c-2.64-.66-1.37,3.08-4.94,3.23-3.75-.13-3.08-4.05-5.5-4.07-2.84,0-.6,5.72-2.13,5.94-1.05.13-1.54-2.46-1.57-5a8.79,8.79,0,0,1,2.25-5.92C214,817.64,215,817,218.4,816.89Z"/><path class="cls-5" d="M211.74,836c-4.26.52-10.62,3.91-13.51,7-1.7,1.36-1.67,4.95-2.3,6.35a20.32,20.32,0,0,0-.74,7.73c.36,1.18-1.05,2.15-1.05,5.48a36.41,36.41,0,0,1-.84,8.2c-.29,1.45-.82,5.78,1,7.67,1.58,1.87.17,1.83,3.18,2.89a29.56,29.56,0,0,0,7.72,1.77c1.77.06,24.94,2.11,26.66,1.94,1.06-.29,1.64-.28,2.29-.46,1.1-.34,3.34-3.23,3.67-3.49s1.42-.66,2-1.35c.33-.49.31-2.73.29-4s.77-3.75.24-5.52.87-3.94.26-5.46c-.73-1.81-.46-3.13-.43-5.72a52.25,52.25,0,0,0-1.72-12.05c-1.16-3.71-7.67-7.95-13.21-10.15C219.49,835.11,211.74,836,211.74,836Z"/><path class="cls-5" d="M212.28,838.94c0,.59.32,5.12.4,5.37A3.37,3.37,0,0,0,214,846.9a13.81,13.81,0,0,1,2.8,3.39c.11.15,1.4,2.22,2.25.23s1.62-3.26,3.18-4,1.92-4.07,2.13-4.87.82-3.34.84-3.75.1-2.1.14-2.22-6.69.19-6.69.19l-6.38,3.11"/><polygon class="cls-6" points="125.55 928.31 131.01 928.31 131.01 895.75 278.86 895.75 278.86 928.31 284.31 928.31 284.31 891.73 125.55 891.73 125.55 928.31"/><polygon class="cls-7" points="131.01 928.31 132.81 927.32 132.48 895.75 131.01 895.75 131.01 928.31"/><polygon class="cls-7" points="278.8 928.31 276.99 927.32 277.33 895.75 278.8 895.75 278.8 928.31"/><path class="cls-8" d="M284.31,927.4h-5.45v10H245.31c.06-.17-.15-.39-1.22-.56-1.74-.18-2-.31-1.74-.41.06-.05,2.63-.5,0-.58,1.45-.15,3.2-.24,4.45-.34,2.25-.25-1.32-.34-1.74-.33s-5.64,0-9.71,0-3.37.12-3.43.28.54.24,1.1.33a7.1,7.1,0,0,0-.87.16c-.75.17.33.32.4.35s-.23.27.36.41.46.56.39.67H204.11a.55.55,0,0,0,.15-.32c0-.35,1.11-.36,1.77-.48s.07-.27.95-.51c.71-.18,1.49-.28-.44-.36h.12c.33,0,.37-.1.48-.3s-2.09-.23-2.09-.23H193.77c-2.83,0-2.78.29-1,.37s3.86.18,4.5.24c-.89.09-1,.22-1,.26s-1.38.36-1.61.41a3.21,3.21,0,0,0-1.12.57,3.48,3.48,0,0,1-1.08.36h-61.3v-10h-5.45v11.28H189.2a.54.54,0,0,1-.26.07c-.16,0-1.5.23-.38.56a37.06,37.06,0,0,0,5.73.55h0c-1.83.16-1.3.5-1,.62.47.11.95.52.84.66s1.4.35,1,.44,0,.49.73.62a6.93,6.93,0,0,0,2.3.52c2.82.23,9,.5,13.2.55-.17.06-.25.12-.33.14a4.79,4.79,0,0,0-1,.05c-.05,0,0,0-.77.21s-.06.21.18.22h.22c-.13.07-.21.14-.22.22.2.24,1,.35,2.25.47,2.18.17,3.22.22,6.59.23a52.07,52.07,0,0,0,7.62-.32c.38-.09,1.15-.23,1-.58,0,0,0,0-.06,0h0c1.15,0,.83-.12.71-.15a5.93,5.93,0,0,0-1-.25,7.41,7.41,0,0,0-.94-.07,3.22,3.22,0,0,1-.41-.09l-.09-.09h0c5.53-.18,12-.52,13.19-.82,1-.24,1.76-.76,1.73-1s-.3-.32.43-.46-.79-.3-.26-.44-.34-.34-.24-.45,0-.28-.29-.32l-.81,0c7-.28,6.91-.62,7.3-.75.18-.06-.11-.16-.39-.28h38.48Zm-81,11.28h0Zm25.75,0-5.73,0h10.24C232.41,938.75,229.69,938.7,229,938.7Z"/></g></svg>