<svg xmlns="http://www.w3.org/2000/svg" xmlns:xlink="http://www.w3.org/1999/xlink" viewBox="0 0 1920 1080"><defs><style>.cls-1{fill:url(#Dégradé_sans_nom_6);}.cls-2{fill:url(#Dégradé_sans_nom_6-2);}.cls-3{fill:url(#Dégradé_sans_nom_6-3);}.cls-4{fill:url(#Dégradé_sans_nom_6-4);}.cls-5{fill:url(#Dégradé_sans_nom_6-5);}.cls-6{fill:url(#Dégradé_sans_nom_6-6);}.cls-7{fill:url(#Dégradé_sans_nom_6-7);}</style><linearGradient id="Dégradé_sans_nom_6" x1="1748.42" y1="146.72" x2="1748.42" y2="112.83" gradientUnits="userSpaceOnUse"><stop offset="0" stop-color="#456f8f"/><stop offset="1" stop-color="#ec6528"/></linearGradient><linearGradient id="Dégradé_sans_nom_6-2" x1="246.65" y1="193.44" x2="246.65" y2="99.54" xlink:href="#Dégradé_sans_nom_6"/><linearGradient id="Dégradé_sans_nom_6-3" x1="1514.42" y1="109.22" x2="1514.42" y2="89.85" xlink:href="#Dégradé_sans_nom_6"/><linearGradient id="Dégradé_sans_nom_6-4" x1="1005.03" y1="405.8" x2="1005.03" y2="314.96" xlink:href="#Dégradé_sans_nom_6"/><linearGradient id="Dégradé_sans_nom_6-5" x1="423.29" y1="280.34" x2="423.29" y2="234.92" xlink:href="#Dégradé_sans_nom_6"/><linearGradient id="Dégradé_sans_nom_6-6" x1="1492.19" y1="259.64" x2="1492.19" y2="193.44" xlink:href="#Dégradé_sans_nom_6"/><linearGradient id="Dégradé_sans_nom_6-7" x1="898.13" y1="103.14" x2="898.13" y2="93.46" xlink:href="#Dégradé_sans_nom_6"/></defs><title>ciel</title><g id="ciel"><g id="avion"><path class="cls-1" d="M1681.7,138.29c.07,2.31,6.31,3.74,11.53,3.81,2.19,0,17,.09,33.92.18a16.42,16.42,0,0,0,.47,4.05c.08.12.48.2.48.2h0c1.41.44,8,0,8.26-.31a.62.62,0,0,0,0-.1,22.7,22.7,0,0,0,2.9-.3,5,5,0,0,0,.17-.86l2.49-1-.42-.19a10.18,10.18,0,0,0,1.85-.24,5.63,5.63,0,0,0,.2-1l.57-.23c15,0,29.09,0,35.56-.19,11.92-1,34.24-7.33,34.63-7.79a3.37,3.37,0,0,0-.15-1.78,6.36,6.36,0,0,0-2.44-.63l2.91-1.32.45-.33s-3.64,0-4,.13c-.12,0-1.48.43-3.25,1l4.33-18.28s-.51-.27-3.51-.32c-2,0-2.73.59-3.45,1.6,0,0-3.31,4-9,10.59-3.63,4.26-5.92,5.15-7.41,5.27l-1.28,0a2.77,2.77,0,0,0-.57,0h0l-1.93-.05c-3.22-.13-9.86-.23-18.12-.3l0-1.45,1-1.28a15.63,15.63,0,0,0-3.45,1.52l-1.52,0a22.82,22.82,0,0,0-3.66,1.12c-25.33-.14-59.17,0-62.07.32-3.26.27-7.69.13-11.27,4.58C1682.42,136.27,1681.66,136.92,1681.7,138.29Zm84.45-8.4h-1.56l.7-.46Z"/></g><g id="nuage"><path class="cls-2" d="M196.53,131.92c5-.42,32.55-37.83,77.32-19.54,3.33,0,28.39-25.43,63.57-4.72,18.75,11,39.41,85.78-42.14,85.78h-123C111.84,193.44,141.62,115.61,196.53,131.92Z"/><path class="cls-3" d="M1504.08,96.53c1-.08,6.71-7.8,16-4,.68,0,5.85-5.24,13.11-1,3.87,2.28,8.13,17.69-8.69,17.69h-25.36C1486.61,109.22,1492.75,93.17,1504.08,96.53Z"/><path class="cls-4" d="M956.55,346.29c4.82-.41,31.49-36.6,74.8-18.91,3.22,0,27.46-24.6,61.49-4.56,18.14,10.68,38.13,83-40.76,83H933.13C874.62,405.8,903.43,330.51,956.55,346.29Z"/><path class="cls-5" d="M399.05,250.58c2.42-.2,15.75-18.3,37.41-9.45,1.6,0,13.72-12.3,30.74-2.28,9.07,5.34,19.07,41.49-20.38,41.49H387.34C358.09,280.34,372.49,242.69,399.05,250.58Z"/><path class="cls-6" d="M1456.86,216.27c3.51-.3,23-26.67,54.51-13.78,2.34,0,20-17.93,44.81-3.32,13.22,7.78,27.79,60.47-29.7,60.47h-86.69C1397.16,259.64,1418.15,204.77,1456.86,216.27Z"/><path class="cls-7" d="M893,96.8c.51,0,3.36-3.9,8-2,.35,0,2.93-2.62,6.56-.48,1.93,1.14,4.06,8.84-4.35,8.84H890.46C884.23,103.14,887.3,95.12,893,96.8Z"/></g></g></svg>